<?xml version="1.0" encoding="utf-8"?>
<!-- Generator: Adobe Illustrator 19.0.0, SVG Export Plug-In . SVG Version: 6.00 Build 0)  -->
<svg version="1.1" id="Layer_1" xmlns="http://www.w3.org/2000/svg" xmlns:xlink="http://www.w3.org/1999/xlink" x="0px" y="0px"
	 viewBox="0 0 150.9 60.3" style="enable-background:new 0 0 150.9 60.3;" xml:space="preserve">
<style type="text/css">
	.st0{fill:#EE5F9B;}
	.st1{fill:#C6307B;}
	.st2{fill:#B5397D;}
	.st3{fill:#992866;}
</style>
<path id="XMLID_75_" class="st0" d="M12.6,35.6c7,0,12.6,5.4,12.6,12.4c0.4,9.1,19.7,12.4,19.7,12.4H12.6C5.6,60.3,0,54.9,0,48
	C0,41,5.6,35.6,12.6,35.6z"/>
<path id="XMLID_74_" class="st1" d="M39.9,20.3c-10.9,0-19.8,9.1-19.8,20c-0.6,14.4-8.3,20-8.3,20h28.1c10.9,0,19.8-9.1,19.8-20
	S50.9,20.3,39.9,20.3z"/>
<path id="XMLID_73_" class="st2" d="M73.9,10.2C60.1,10.2,49,21.5,49,35.3c-0.7,18-27.3,25.1-27.3,25.1h52.1
	c13.7,0,24.9-11.4,24.9-25.1S87.6,10.2,73.9,10.2z"/>
<path id="XMLID_78_" class="st3" d="M120.9,0c-16.6,0-30,13.6-30,30.2C90,51.9,44,60.3,44,60.3h76.9c16.6,0,30-13.6,30-30.2
	S137.5,0,120.9,0z"/>
</svg>
