<?xml version="1.0" encoding="utf-8"?>
<!-- Generator: Adobe Illustrator 19.0.0, SVG Export Plug-In . SVG Version: 6.00 Build 0)  -->
<svg version="1.1" id="Layer_1" xmlns="http://www.w3.org/2000/svg" xmlns:xlink="http://www.w3.org/1999/xlink" x="0px" y="0px"
	 viewBox="-252.7 265.6 160.8 26.9" style="enable-background:new -252.7 265.6 160.8 26.9;" xml:space="preserve">
<g id="XMLID_46_">
	<path id="XMLID_66_" d="M-250.5,292.2l9.5-23.4h-0.4c-0.9,0-1.8,0.1-2.7,0.3c-0.9,0.2-1.6,0.6-2.3,1.1s-1.3,1.3-1.8,2.2
		c-0.5,0.9-0.9,2.1-1.2,3.5c-0.1,0.4-0.1,0.8-0.1,1.1c0,0.3,0,0.5,0,0.7s0.1,0.3,0.1,0.4s0,0.2,0,0.2c-0.6,0-1.1,0-1.6-0.2
		c-0.4-0.1-0.8-0.3-1.1-0.6c-0.3-0.3-0.4-0.6-0.5-1.1c-0.1-0.4-0.1-1,0.1-1.6c0.2-1.2,0.7-2.3,1.3-3.4c0.7-1.1,1.5-2.1,2.7-2.9
		c1.1-0.9,2.5-1.5,4.1-2.1c1.6-0.5,3.5-0.8,5.7-0.8c0.7,0,1.3,0,1.9,0.1c0.5,0,1.1,0.1,1.5,0.1c0.5,0.1,0.9,0.1,1.3,0.2
		c0.5,0.2,0.9,0.3,1.3,0.3c0.4,0.1,0.9,0.1,1.3,0.1c0.5,0,1,0.1,1.6,0.1c0.8,0,1.6-0.1,2.4-0.2c0.7-0.1,1.4-0.3,1.9-0.5
		c-0.4,1.6-1,2.7-1.9,3.4c-0.9,0.7-2,1.1-3.4,1.1c-0.9,0-1.7-0.1-2.6-0.2c-0.9-0.2-1.8-0.3-2.7-0.5l-9.3,22.7h-5.1V292.2z"/>
	<path id="XMLID_68_" d="M-240.4,292.2l7.2-17.7h5.1l-0.9,2.2c0.4-0.3,0.7-0.5,1.1-0.8c0.4-0.3,0.8-0.5,1.1-0.7
		c0.4-0.2,0.8-0.4,1.2-0.5c0.4-0.1,0.8-0.2,1.2-0.2c0.4,0,0.7,0.1,1,0.2s0.5,0.3,0.7,0.6c0.2,0.2,0.3,0.5,0.3,0.8s0,0.7,0,1
		c-0.1,0.3-0.2,0.6-0.3,0.9c-0.2,0.3-0.4,0.6-0.6,0.8c-0.3,0.2-0.6,0.4-0.9,0.6c-0.4,0.2-0.7,0.2-1.2,0.2c-0.3,0-0.6-0.1-0.7-0.2
		c-0.2-0.1-0.3-0.3-0.3-0.4c-0.1-0.2-0.1-0.4-0.1-0.6c0-0.2,0-0.4,0-0.6c0-0.2,0-0.3-0.1-0.4c-0.1-0.1-0.2-0.2-0.3-0.2
		c-0.5,0-1,0.1-1.4,0.4c-0.4,0.2-0.9,0.6-1.4,1l-5.4,13.4h-5.3V292.2z"/>
	<path id="XMLID_70_" d="M-204.5,285.9c-0.5,1-1,1.8-1.6,2.5c-0.5,0.7-1,1.3-1.6,1.8c-0.5,0.5-1,0.9-1.5,1.2c-0.5,0.3-1,0.5-1.4,0.7
		c-0.4,0.2-0.9,0.3-1.3,0.3c-0.4,0-0.7,0.1-1.1,0.1c-1,0-1.7-0.3-2.2-0.8s-0.7-1.4-0.6-2.4c-0.4,0.4-0.8,0.8-1.2,1.2
		c-0.4,0.4-0.9,0.7-1.4,1c-0.5,0.3-1,0.6-1.6,0.7c-0.6,0.2-1.2,0.3-1.8,0.3s-1.2-0.1-1.7-0.3s-1-0.5-1.3-1c-0.4-0.4-0.6-1-0.7-1.8
		c-0.1-0.7-0.1-1.6,0.1-2.7c0.2-0.8,0.4-1.7,0.7-2.6c0.3-0.9,0.8-1.8,1.3-2.8c0.5-0.9,1.1-1.8,1.8-2.6s1.4-1.6,2.2-2.2
		c0.8-0.6,1.7-1.2,2.6-1.6c0.9-0.4,1.9-0.6,2.9-0.6s1.7,0.2,2.1,0.5c0.4,0.3,0.5,0.8,0.4,1.3l-0.1,0.3l0.7-1.9h5.1l-4.9,12
		c-0.1,0.2-0.2,0.4-0.2,0.6c-0.1,0.2-0.1,0.4-0.1,0.6c-0.2,1,0.2,1.5,1.2,1.5c0.3,0,0.7-0.1,1-0.3c0.3-0.2,0.6-0.4,0.9-0.7
		s0.6-0.7,0.8-1.1c0.3-0.4,0.5-0.8,0.7-1.3L-204.5,285.9L-204.5,285.9z M-211.8,277.9c0-0.1,0-0.2,0-0.4c0-0.2-0.1-0.3-0.1-0.4
		c-0.1-0.1-0.2-0.3-0.4-0.4c-0.2-0.1-0.4-0.1-0.7-0.1c-0.5,0-1,0.2-1.5,0.5s-1,0.8-1.5,1.3s-0.9,1.1-1.3,1.8
		c-0.4,0.7-0.8,1.4-1.1,2.1c-0.3,0.7-0.6,1.4-0.9,2.1c-0.2,0.7-0.4,1.3-0.5,1.9c-0.1,0.7-0.2,1.2-0.1,1.6c0.1,0.4,0.2,0.6,0.3,0.8
		c0.1,0.2,0.3,0.3,0.5,0.3s0.4,0.1,0.5,0.1c0.3,0,0.6-0.1,0.9-0.2c0.3-0.1,0.6-0.3,1-0.6c0.4-0.3,0.6-0.6,0.9-1
		c0.3-0.4,0.6-0.8,0.8-1.4L-211.8,277.9z"/>
	<path id="XMLID_73_" d="M-185.9,285.9c-0.5,1-1,1.8-1.6,2.5c-0.5,0.7-1,1.3-1.6,1.7s-1,0.8-1.5,1.1c-0.5,0.3-1,0.5-1.4,0.6
		s-0.9,0.2-1.2,0.3s-0.7,0.1-1,0.1c-1,0-1.7-0.3-2.2-0.8s-0.7-1.3-0.7-2.3c-0.3,0.4-0.7,0.8-1.1,1.2c-0.4,0.4-0.9,0.7-1.4,1
		c-0.5,0.3-1,0.6-1.6,0.7c-0.6,0.2-1.2,0.3-1.8,0.3s-1.2-0.1-1.7-0.3c-0.5-0.2-1-0.5-1.3-1c-0.4-0.4-0.6-1-0.7-1.8
		c-0.1-0.7-0.1-1.6,0.1-2.7c0.2-0.8,0.4-1.7,0.7-2.6c0.3-0.9,0.8-1.8,1.3-2.8c0.5-0.9,1.1-1.8,1.8-2.6c0.7-0.8,1.4-1.6,2.2-2.2
		c0.8-0.6,1.7-1.2,2.6-1.6c0.9-0.4,1.9-0.6,2.9-0.6s1.7,0.2,2.1,0.5c0.4,0.3,0.5,0.8,0.4,1.3v0.1l3.3-8.1l5.4-0.7l-7.8,19.1
		c-0.1,0.2-0.2,0.4-0.2,0.6c-0.1,0.2-0.1,0.4-0.1,0.6c-0.1,0.5,0,0.8,0.2,1c0.2,0.2,0.5,0.3,1,0.3c0.3,0,0.7-0.1,1-0.2
		c0.3-0.2,0.6-0.4,0.9-0.6c0.3-0.3,0.6-0.6,0.8-1c0.3-0.4,0.5-0.8,0.7-1.3h1.5V285.9z M-196.5,285.9l3.3-8.1c0-0.1,0-0.2,0-0.4
		c0-0.1-0.1-0.3-0.2-0.4c-0.1-0.1-0.2-0.2-0.4-0.3s-0.4-0.1-0.7-0.1c-0.5,0-1,0.2-1.5,0.5s-1,0.8-1.5,1.3s-0.9,1.1-1.3,1.8
		c-0.4,0.7-0.8,1.4-1.1,2.1c-0.3,0.7-0.6,1.4-0.9,2.1c-0.2,0.7-0.4,1.3-0.5,1.9c-0.1,0.7-0.2,1.2-0.1,1.6c0.1,0.4,0.2,0.6,0.3,0.8
		c0.1,0.2,0.3,0.3,0.5,0.3s0.4,0.1,0.5,0.1c0.2,0,0.5-0.1,0.8-0.2c0.3-0.1,0.6-0.3,1-0.5c0.3-0.2,0.6-0.5,0.9-0.9s0.5-0.8,0.8-1.3
		L-196.5,285.9z"/>
	<path id="XMLID_76_" d="M-172.6,285.9c-0.7,0.8-1.4,1.6-2.2,2.4c-0.8,0.8-1.6,1.5-2.6,2.1c-0.9,0.6-1.9,1.1-2.9,1.5
		c-1,0.4-2.1,0.6-3.3,0.6c-0.8,0-1.6-0.1-2.2-0.3c-0.6-0.2-1.2-0.5-1.6-1c-0.4-0.4-0.7-1-0.8-1.7c-0.1-0.7-0.1-1.6,0.1-2.6
		c0.1-0.7,0.4-1.5,0.7-2.3s0.7-1.8,1.2-2.7c0.5-0.9,1.1-1.8,1.7-2.7c0.7-0.9,1.4-1.7,2.3-2.4c0.8-0.7,1.8-1.3,2.8-1.7
		s2.1-0.6,3.4-0.6c0.8,0,1.4,0.1,1.9,0.3c0.5,0.2,0.8,0.4,1,0.8c0.2,0.3,0.4,0.7,0.4,1.1s0,0.8-0.1,1.3c-0.2,1-0.6,2-1.2,2.9
		c-0.6,0.9-1.4,1.6-2.3,2.3c-0.9,0.7-1.9,1.2-2.9,1.6c-1.1,0.4-2.1,0.6-3.2,0.7c-0.1,0.3-0.1,0.5-0.2,0.8c-0.1,0.2-0.1,0.5-0.2,0.7
		c-0.1,0.6-0.2,1.1-0.1,1.5c0,0.4,0.1,0.7,0.3,0.9c0.2,0.2,0.4,0.4,0.7,0.5c0.3,0.1,0.7,0.1,1.1,0.1c0.7,0,1.4-0.1,2-0.3
		c0.6-0.2,1.2-0.4,1.7-0.8c0.6-0.3,1.1-0.7,1.6-1.1s1.1-0.9,1.6-1.4h1.3V285.9z M-181.8,283.4c0.7,0,1.4-0.2,2-0.6
		c0.7-0.3,1.3-0.8,1.9-1.3c0.6-0.5,1.1-1.1,1.5-1.8c0.4-0.7,0.7-1.4,0.8-2.1c0.1-0.4,0.1-0.8,0-1.1c-0.1-0.3-0.3-0.4-0.6-0.4
		c-0.4,0-0.9,0.2-1.4,0.6s-1,1-1.5,1.7c-0.5,0.7-1,1.5-1.5,2.3C-181.1,281.6-181.5,282.5-181.8,283.4z"/>
	<path id="XMLID_79_" d="M-160.5,274.5h5.1l-4.9,12c-0.2,0.6-0.4,1-0.4,1.3c-0.1,0.4,0,0.6,0.1,0.9c0.1,0.2,0.4,0.3,0.9,0.3
		c0.6,0,1.2-0.2,1.8-0.6c0.6-0.4,1.2-0.9,1.8-1.6c0.6-0.7,1.1-1.4,1.7-2.3c0.5-0.8,1-1.7,1.4-2.6c0.4-0.9,0.8-1.7,1.1-2.6
		c0.3-0.8,0.5-1.6,0.6-2.2c0,0.1-0.1,0.1-0.2,0.2c-0.1,0.1-0.2,0.1-0.3,0.1s-0.2,0-0.4,0.1c-0.1,0-0.2,0-0.3,0
		c-0.2,0-0.4-0.1-0.5-0.2c-0.1-0.1-0.2-0.3-0.3-0.4c-0.1-0.2-0.1-0.4-0.1-0.6c0-0.2,0-0.4,0-0.6c0.1-0.6,0.4-1,0.8-1.4
		c0.4-0.4,1-0.5,1.8-0.5c0.4,0,0.8,0.1,1,0.3s0.4,0.4,0.5,0.7c0.1,0.3,0.2,0.6,0.2,1c0,0.4,0,0.7-0.1,1.1c-0.2,0.9-0.5,2-0.8,3.1
		s-0.9,2.3-1.4,3.4c-0.6,1.2-1.2,2.3-2,3.3c-0.7,1.1-1.6,2-2.5,2.9c-0.9,0.8-1.9,1.5-3,2s-2.2,0.8-3.4,0.8s-2-0.2-2.7-0.7
		c-0.6-0.5-1-1.2-1-2.2c-0.6,0.6-1.1,1.2-1.6,1.5c-0.5,0.4-1,0.7-1.5,0.9c-0.5,0.2-0.9,0.4-1.3,0.4c-0.4,0.1-0.8,0.1-1.1,0.1
		c-0.5,0-1-0.1-1.4-0.2c-0.4-0.1-0.8-0.4-1.1-0.8c-0.3-0.3-0.5-0.8-0.5-1.3c-0.1-0.5-0.1-1.2,0.1-1.9c0.1-0.3,0.2-0.7,0.3-1.1
		s0.3-0.8,0.5-1.3l4.6-11.3h5.1l-4.9,12c-0.1,0.3-0.2,0.6-0.3,0.9c0,0.2-0.1,0.4-0.1,0.6c0,0.2,0,0.3,0.1,0.5
		c0.1,0.1,0.1,0.3,0.3,0.3c0.1,0.1,0.3,0.1,0.5,0.1c0.3,0,0.7-0.1,1-0.2c0.3-0.2,0.6-0.4,0.9-0.6c0.3-0.3,0.6-0.6,0.8-1
		c0.3-0.4,0.5-0.8,0.7-1.3L-160.5,274.5z"/>
	<path id="XMLID_81_" d="M-139.6,285.9c-0.5,1-1.1,1.8-1.6,2.5c-0.5,0.7-1.1,1.3-1.6,1.8s-1.1,0.9-1.6,1.2c-0.5,0.3-1,0.5-1.5,0.7
		s-0.9,0.3-1.3,0.3s-0.8,0.1-1.1,0.1c-0.5,0-1-0.1-1.4-0.2c-0.4-0.1-0.8-0.4-1.1-0.8c-0.3-0.3-0.5-0.8-0.5-1.3
		c-0.1-0.5-0.1-1.2,0.1-1.9c0.1-0.3,0.2-0.7,0.3-1.1s0.3-0.8,0.5-1.3l4.6-11.3h5.1l-4.9,12c-0.1,0.2-0.2,0.4-0.2,0.6
		c-0.1,0.2-0.1,0.4-0.1,0.6c-0.1,0.5,0,0.8,0.1,1c0.2,0.2,0.5,0.3,1,0.3c0.3,0,0.7-0.1,1.1-0.2c0.4-0.1,0.7-0.4,1-0.6
		c0.3-0.3,0.6-0.6,0.9-1c0.3-0.4,0.6-0.8,0.8-1.3h1.4V285.9z M-138.6,269.8c-0.1,0.4-0.2,0.8-0.4,1.1c-0.2,0.3-0.5,0.6-0.8,0.9
		c-0.3,0.3-0.6,0.4-1,0.6c-0.4,0.1-0.7,0.2-1.1,0.2c-0.4,0-0.7-0.1-1.1-0.2c-0.3-0.1-0.6-0.3-0.8-0.6c-0.2-0.3-0.3-0.5-0.4-0.9
		c-0.1-0.3-0.1-0.7,0-1.1c0.1-0.4,0.2-0.8,0.4-1.1c0.2-0.3,0.5-0.6,0.8-0.9c0.3-0.3,0.6-0.5,1-0.6s0.7-0.2,1.1-0.2
		c0.4,0,0.7,0.1,1.1,0.2c0.3,0.1,0.6,0.4,0.8,0.6c0.2,0.3,0.4,0.6,0.4,0.9C-138.6,269.1-138.6,269.4-138.6,269.8z"/>
	<path id="XMLID_84_" d="M-121.7,285.9c-0.8,1.5-1.5,2.6-2.3,3.5c-0.7,0.9-1.4,1.5-2.1,2s-1.3,0.8-1.9,0.9c-0.6,0.1-1.1,0.2-1.6,0.2
		c-0.8,0-1.4-0.1-1.9-0.3c-0.5-0.2-0.9-0.5-1.1-0.9c-0.2-0.4-0.4-0.8-0.5-1.3s0-1,0.1-1.5c0.1-0.6,0.3-1.3,0.7-2.1
		c0.3-0.8,0.7-1.6,1-2.5c0.4-0.8,0.7-1.7,1-2.4c0.3-0.8,0.5-1.5,0.6-2c0.2-1.2-0.1-1.8-0.9-1.8c-0.3,0-0.6,0.1-0.9,0.3
		c-0.3,0.2-0.6,0.4-0.9,0.7c-0.3,0.3-0.6,0.6-0.8,1c-0.3,0.4-0.5,0.8-0.7,1.3l-4.6,11.3h-5.1l7.2-17.7h5.1l-0.7,1.8
		c0.5-0.4,0.9-0.8,1.3-1c0.4-0.3,0.8-0.5,1.2-0.6s0.7-0.2,1.1-0.3c0.3,0,0.6-0.1,0.9-0.1c0.6,0,1.1,0.1,1.5,0.2
		c0.5,0.1,0.8,0.4,1.1,0.7c0.3,0.3,0.5,0.7,0.6,1.2s0.1,1.1-0.1,1.8c-0.1,0.5-0.2,1-0.4,1.5s-0.4,1.1-0.6,1.7
		c-0.2,0.6-0.5,1.1-0.7,1.7c-0.3,0.6-0.5,1.1-0.7,1.6s-0.4,1-0.6,1.4c-0.2,0.4-0.3,0.8-0.4,1.2c-0.1,0.4-0.1,0.8,0.1,1.1
		c0.1,0.3,0.5,0.4,1,0.4c0.4,0,0.7-0.1,1-0.2s0.6-0.4,0.9-0.6c0.3-0.3,0.6-0.6,0.8-1c0.3-0.4,0.5-0.8,0.8-1.3L-121.7,285.9
		L-121.7,285.9z"/>
	<path id="XMLID_86_" d="M-103.2,285.9c-0.5,1-1,1.8-1.6,2.5c-0.5,0.7-1,1.3-1.6,1.7s-1,0.8-1.5,1.1c-0.5,0.3-1,0.5-1.4,0.6
		s-0.9,0.2-1.2,0.3s-0.7,0.1-1,0.1c-1,0-1.7-0.3-2.2-0.8s-0.7-1.3-0.7-2.3c-0.3,0.4-0.7,0.8-1.1,1.2c-0.4,0.4-0.9,0.7-1.4,1
		c-0.5,0.3-1,0.6-1.6,0.7c-0.6,0.2-1.2,0.3-1.8,0.3s-1.2-0.1-1.7-0.3c-0.5-0.2-1-0.5-1.3-1c-0.4-0.4-0.6-1-0.7-1.8
		c-0.1-0.7-0.1-1.6,0.1-2.7c0.2-0.8,0.4-1.7,0.7-2.6c0.3-0.9,0.8-1.8,1.3-2.8c0.5-0.9,1.1-1.8,1.8-2.6c0.7-0.8,1.4-1.6,2.2-2.2
		s1.7-1.2,2.6-1.6c0.9-0.4,1.9-0.6,2.9-0.6s1.7,0.2,2.1,0.5c0.4,0.3,0.5,0.8,0.4,1.3v0.1l3.3-8.1l5.4-0.7l-7.8,19.1
		c-0.1,0.2-0.2,0.4-0.2,0.6c-0.1,0.2-0.1,0.4-0.1,0.6c-0.1,0.5,0,0.8,0.2,1c0.2,0.2,0.5,0.3,1,0.3c0.3,0,0.7-0.1,1-0.2
		c0.3-0.2,0.6-0.4,0.9-0.6c0.3-0.3,0.6-0.6,0.8-1c0.3-0.4,0.5-0.8,0.7-1.3h1.5V285.9z M-113.8,285.9l3.3-8.1c0-0.1,0-0.2,0-0.4
		c0-0.1-0.1-0.3-0.2-0.4c-0.1-0.1-0.2-0.2-0.4-0.3s-0.4-0.1-0.7-0.1c-0.5,0-1,0.2-1.5,0.5s-1,0.8-1.5,1.3s-0.9,1.1-1.3,1.8
		c-0.4,0.7-0.8,1.4-1.1,2.1c-0.3,0.7-0.6,1.4-0.9,2.1c-0.2,0.7-0.4,1.3-0.5,1.9c-0.1,0.7-0.2,1.2-0.1,1.6c0.1,0.4,0.2,0.6,0.3,0.8
		c0.1,0.2,0.3,0.3,0.5,0.3s0.4,0.1,0.5,0.1c0.2,0,0.5-0.1,0.8-0.2c0.3-0.1,0.6-0.3,1-0.5c0.3-0.2,0.6-0.5,0.9-0.9
		c0.3-0.4,0.5-0.8,0.8-1.3L-113.8,285.9z"/>
	<path id="XMLID_89_" d="M-91.9,273.4c-0.2,1.5-0.4,2.9-0.6,4c-0.2,1.1-0.3,2.1-0.4,2.9c-0.1,0.8-0.2,1.5-0.3,2.1
		c-0.1,0.6-0.1,1.1-0.2,1.5c0,0.4-0.1,0.8-0.1,1.2c-0.1,0.4-0.1,0.7-0.2,1.1c-0.2,0.8-0.4,1.5-0.7,2.1s-0.7,1.1-1.2,1.6
		c-0.4,0.4-0.9,0.8-1.5,1.1c-0.6,0.3-1.1,0.6-1.7,0.8c-0.6,0.2-1.1,0.3-1.7,0.4c-0.6,0.1-1.1,0.1-1.6,0.1c-0.9,0-1.6-0.1-2.2-0.4
		c-0.6-0.3-1.1-0.6-1.4-1.1s-0.6-0.9-0.7-1.4s-0.1-1.1,0-1.6c0.1-0.4,0.2-0.8,0.4-1.1c0.2-0.4,0.4-0.7,0.6-0.9
		c0.2-0.3,0.5-0.5,0.7-0.7c0.3-0.2,0.5-0.4,0.8-0.5c1.3-1.8,2.5-3.5,3.5-5.3c1-1.7,2-3.5,2.9-5.2L-91.9,273.4z M-104.2,287.1
		c-0.2,0.8-0.1,1.4,0.1,1.9c0.2,0.4,0.8,0.6,1.5,0.6c0.4,0,0.8-0.1,1.2-0.2c0.4-0.1,0.8-0.3,1.1-0.6c0.3-0.3,0.6-0.6,0.9-1
		c0.3-0.4,0.4-0.9,0.6-1.6c0.1-0.3,0.1-0.6,0.1-0.9c0-0.3,0.1-0.6,0.1-0.9c0-0.3,0.1-0.7,0.1-1.1c0-0.4,0.1-0.8,0.1-1.4
		c0-0.5,0.1-1.1,0.2-1.8s0.2-1.5,0.3-2.4c-0.6,1.2-1.2,2.3-1.9,3.3c-0.7,1.1-1.4,2.2-2.3,3.3c0.2,0.1,0.4,0.3,0.5,0.5
		c0.1,0.2,0.1,0.4,0.1,0.7c0,0.2-0.1,0.4-0.2,0.6c-0.1,0.2-0.2,0.4-0.4,0.6c-0.2,0.2-0.4,0.3-0.6,0.4c-0.2,0.1-0.4,0.1-0.7,0.1
		c-0.2,0-0.4,0-0.5-0.1C-104,287.5-104.1,287.3-104.2,287.1z"/>
</g>
</svg>
