<?xml version="1.0" encoding="utf-8"?>
<!-- Generator: Adobe Illustrator 19.0.0, SVG Export Plug-In . SVG Version: 6.00 Build 0)  -->
<svg version="1.1" id="Layer_1" xmlns="http://www.w3.org/2000/svg" xmlns:xlink="http://www.w3.org/1999/xlink" x="0px" y="0px"
	 viewBox="-282 254 395 53" style="enable-background:new -282 254 395 53;" xml:space="preserve">
<style type="text/css">
	.st0{enable-background:new    ;}
</style>
<g id="XMLID_44_" class="st0">
	<path d="M-200.5,295.2l12.7-31.2h-0.6c-1.2,0-2.4,0.1-3.6,0.4s-2.2,0.8-3.1,1.5c-0.9,0.7-1.8,1.7-2.4,2.9c-0.7,1.2-1.2,2.8-1.6,4.7
		c-0.1,0.6-0.2,1.1-0.2,1.5c0,0.4,0,0.7,0,0.9c0,0.2,0.1,0.4,0.1,0.5c0,0.1,0.1,0.2,0,0.3c-0.8,0-1.5-0.1-2.1-0.2
		c-0.6-0.2-1.1-0.4-1.4-0.8c-0.4-0.4-0.6-0.8-0.7-1.4c-0.1-0.6-0.1-1.3,0.1-2.1c0.3-1.6,0.9-3.1,1.8-4.6c0.9-1.5,2.1-2.8,3.6-3.9
		c1.5-1.1,3.3-2,5.5-2.7c2.2-0.7,4.7-1,7.6-1c1,0,1.8,0,2.5,0.1c0.7,0.1,1.4,0.1,2,0.2c0.6,0.1,1.2,0.2,1.8,0.3
		c0.5,0.1,1.1,0.2,1.7,0.3c0.6,0.1,1.2,0.1,1.8,0.2s1.3,0.1,2.1,0.1c1.1,0,2.2-0.1,3.1-0.3c1-0.2,1.8-0.4,2.5-0.7
		c-0.5,2.1-1.3,3.6-2.5,4.5c-1.2,1-2.7,1.4-4.6,1.4c-1.2,0-2.3-0.1-3.5-0.3c-1.2-0.2-2.4-0.5-3.6-0.7l-12.4,30.3H-200.5z"/>
	<path d="M-187,295.2l9.6-23.6h6.8l-1.2,2.9c0.5-0.4,1-0.7,1.5-1.1c0.5-0.4,1-0.7,1.5-0.9c0.5-0.3,1-0.5,1.6-0.7
		c0.5-0.2,1.1-0.3,1.7-0.3c0.5,0,1,0.1,1.4,0.3c0.4,0.2,0.7,0.5,0.9,0.8c0.2,0.3,0.3,0.7,0.4,1.1c0.1,0.4,0,0.9-0.1,1.3
		c-0.1,0.4-0.2,0.8-0.4,1.2c-0.2,0.4-0.5,0.8-0.8,1.1c-0.3,0.3-0.8,0.6-1.2,0.8c-0.5,0.2-1,0.3-1.6,0.3c-0.4,0-0.8-0.1-1-0.2
		c-0.2-0.2-0.4-0.3-0.4-0.6c-0.1-0.2-0.1-0.5-0.1-0.7c0-0.3,0-0.5,0-0.7c0-0.2-0.1-0.4-0.1-0.6s-0.2-0.2-0.4-0.2
		c-0.7,0-1.4,0.2-1.9,0.5c-0.6,0.3-1.2,0.8-1.9,1.3l-7.3,17.9H-187z"/>
	<path d="M-139.1,286.7c-0.7,1.3-1.4,2.4-2.1,3.3c-0.7,0.9-1.4,1.7-2.1,2.4c-0.7,0.6-1.4,1.2-2,1.6c-0.7,0.4-1.3,0.7-1.9,0.9
		c-0.6,0.2-1.2,0.4-1.7,0.4c-0.5,0.1-1,0.1-1.4,0.1c-1.3,0-2.3-0.4-3-1.1c-0.6-0.7-0.9-1.8-0.8-3.2c-0.5,0.5-1,1.1-1.6,1.6
		c-0.6,0.5-1.2,1-1.8,1.4c-0.6,0.4-1.3,0.7-2.1,1c-0.7,0.3-1.5,0.4-2.4,0.4c-0.8,0-1.6-0.1-2.3-0.4c-0.7-0.3-1.3-0.7-1.8-1.3
		c-0.5-0.6-0.8-1.4-0.9-2.3c-0.2-1-0.1-2.1,0.2-3.5c0.2-1.1,0.5-2.2,1-3.5c0.5-1.2,1-2.5,1.7-3.7c0.7-1.2,1.5-2.4,2.4-3.5
		s1.9-2.1,2.9-3c1.1-0.9,2.2-1.6,3.5-2.1s2.5-0.8,3.9-0.8c1.3,0,2.3,0.2,2.8,0.7c0.5,0.5,0.7,1,0.6,1.7l-0.1,0.3l1-2.5h6.8l-6.5,16
		c-0.1,0.3-0.2,0.5-0.3,0.8c-0.1,0.3-0.1,0.5-0.2,0.7c-0.3,1.3,0.3,2,1.5,2c0.5,0,0.9-0.1,1.3-0.4c0.4-0.2,0.9-0.6,1.3-1
		c0.4-0.4,0.8-0.9,1.1-1.4c0.4-0.5,0.7-1.1,1-1.7H-139.1z M-148.9,276.1c0-0.1,0-0.3,0-0.5c0-0.2-0.1-0.4-0.2-0.6
		c-0.1-0.2-0.3-0.4-0.5-0.5s-0.5-0.2-0.9-0.2c-0.7,0-1.3,0.2-2,0.6c-0.7,0.4-1.3,1-2,1.7c-0.6,0.7-1.2,1.5-1.8,2.4
		c-0.6,0.9-1.1,1.8-1.5,2.8c-0.5,1-0.8,1.9-1.2,2.8s-0.5,1.8-0.7,2.5c-0.2,0.9-0.2,1.6-0.2,2.1c0.1,0.5,0.2,0.9,0.4,1.1
		c0.2,0.2,0.4,0.4,0.7,0.4c0.3,0,0.5,0.1,0.7,0.1c0.4,0,0.7-0.1,1.2-0.3c0.4-0.2,0.9-0.4,1.3-0.8c0.4-0.3,0.8-0.8,1.2-1.3
		c0.4-0.5,0.7-1.1,1-1.8L-148.9,276.1z"/>
	<path d="M-114.4,286.7c-0.7,1.3-1.4,2.4-2.1,3.3c-0.7,0.9-1.4,1.7-2.1,2.3s-1.3,1.1-2,1.5c-0.7,0.4-1.3,0.7-1.9,0.9
		c-0.6,0.2-1.1,0.3-1.7,0.4c-0.5,0.1-1,0.1-1.4,0.1c-1.3,0-2.3-0.3-3-1c-0.7-0.7-1-1.7-0.9-3c-0.5,0.5-1,1.1-1.5,1.6
		c-0.6,0.5-1.2,1-1.8,1.4c-0.7,0.4-1.4,0.7-2.1,1c-0.8,0.3-1.5,0.4-2.4,0.4c-0.8,0-1.6-0.1-2.3-0.4c-0.7-0.3-1.3-0.7-1.8-1.3
		c-0.5-0.6-0.8-1.4-0.9-2.3c-0.2-1-0.1-2.1,0.2-3.5c0.2-1.1,0.5-2.2,1-3.5c0.5-1.2,1-2.5,1.7-3.7c0.7-1.2,1.5-2.4,2.4-3.5
		s1.9-2.1,2.9-3c1.1-0.9,2.2-1.6,3.5-2.1s2.5-0.8,3.9-0.8c1.3,0,2.3,0.2,2.8,0.7c0.5,0.5,0.7,1,0.6,1.7l0,0.2l4.4-10.8l7.2-0.9
		l-10.4,25.4c-0.1,0.3-0.2,0.5-0.3,0.8c-0.1,0.3-0.1,0.5-0.2,0.7c-0.1,0.7-0.1,1.1,0.2,1.4c0.3,0.3,0.7,0.4,1.4,0.4
		c0.5,0,0.9-0.1,1.3-0.3c0.4-0.2,0.8-0.5,1.2-0.9c0.4-0.4,0.8-0.8,1.1-1.3c0.3-0.5,0.7-1.1,1-1.7H-114.4z M-128.5,286.7l4.4-10.8
		c0-0.1,0-0.3-0.1-0.5c0-0.2-0.1-0.4-0.2-0.5c-0.1-0.2-0.3-0.3-0.5-0.4c-0.2-0.1-0.5-0.2-0.9-0.2c-0.7,0-1.3,0.2-2,0.6
		c-0.7,0.4-1.3,1-2,1.7c-0.6,0.7-1.2,1.5-1.8,2.4c-0.6,0.9-1.1,1.8-1.5,2.8c-0.5,1-0.8,1.9-1.2,2.8s-0.5,1.8-0.7,2.5
		c-0.2,0.9-0.2,1.6-0.2,2.1c0.1,0.5,0.2,0.9,0.4,1.1c0.2,0.2,0.4,0.4,0.7,0.4c0.3,0,0.5,0.1,0.7,0.1c0.3,0,0.7-0.1,1.1-0.2
		c0.4-0.2,0.8-0.4,1.3-0.7c0.4-0.3,0.8-0.7,1.2-1.2c0.4-0.5,0.7-1.1,1-1.7L-128.5,286.7z"/>
	<path d="M-96.7,286.7c-0.9,1.1-1.8,2.2-2.9,3.2c-1.1,1-2.2,2-3.4,2.8c-1.2,0.8-2.5,1.5-3.9,2c-1.4,0.5-2.9,0.7-4.4,0.7
		c-1.1,0-2.1-0.1-3-0.4c-0.9-0.3-1.5-0.7-2.1-1.3c-0.5-0.6-0.9-1.4-1-2.3c-0.2-0.9-0.1-2.1,0.1-3.4c0.2-0.9,0.5-1.9,0.9-3.1
		c0.4-1.2,0.9-2.4,1.6-3.6c0.6-1.2,1.4-2.5,2.3-3.7c0.9-1.2,1.9-2.3,3-3.2c1.1-0.9,2.4-1.7,3.7-2.3s2.9-0.9,4.5-0.9
		c1.1,0,1.9,0.1,2.5,0.4c0.6,0.3,1.1,0.6,1.4,1c0.3,0.4,0.5,0.9,0.5,1.4s0,1.1-0.1,1.7c-0.3,1.4-0.8,2.6-1.6,3.8
		c-0.8,1.2-1.8,2.2-3,3.1c-1.2,0.9-2.5,1.6-3.9,2.1c-1.4,0.5-2.8,0.9-4.3,0.9c-0.1,0.4-0.2,0.7-0.3,1c-0.1,0.3-0.2,0.6-0.2,0.9
		c-0.2,0.8-0.2,1.5-0.2,2c0,0.5,0.2,0.9,0.4,1.2c0.2,0.3,0.5,0.5,0.9,0.6s0.9,0.2,1.5,0.2c0.9,0,1.8-0.1,2.6-0.4
		c0.8-0.2,1.6-0.6,2.3-1c0.7-0.4,1.5-0.9,2.2-1.5c0.7-0.6,1.4-1.2,2.1-1.9H-96.7z M-108.9,283.4c0.9-0.1,1.8-0.3,2.7-0.8
		c0.9-0.4,1.8-1,2.5-1.7c0.8-0.7,1.4-1.5,2-2.4c0.6-0.9,0.9-1.9,1.1-2.8c0.1-0.6,0.1-1.1,0-1.4c-0.1-0.4-0.4-0.5-0.8-0.5
		c-0.6,0-1.2,0.3-1.9,0.9s-1.4,1.3-2.1,2.2c-0.7,0.9-1.3,2-2,3.1C-107.9,281.1-108.4,282.2-108.9,283.4z"/>
	<path d="M-80.5,271.6h6.8l-6.5,16c-0.3,0.8-0.5,1.3-0.6,1.7c-0.1,0.5,0,0.9,0.2,1.1s0.6,0.4,1.1,0.4c0.8,0,1.6-0.3,2.4-0.8
		c0.8-0.5,1.6-1.2,2.4-2.1c0.8-0.9,1.5-1.9,2.2-3c0.7-1.1,1.3-2.3,1.9-3.4c0.6-1.2,1.1-2.3,1.5-3.4c0.4-1.1,0.7-2.1,0.9-3
		c0,0.1-0.1,0.1-0.3,0.2s-0.3,0.1-0.5,0.1c-0.2,0-0.3,0.1-0.5,0.1c-0.2,0-0.3,0-0.4,0c-0.3,0-0.5-0.1-0.7-0.2
		c-0.2-0.1-0.3-0.3-0.4-0.6c-0.1-0.2-0.2-0.5-0.2-0.8c0-0.3,0-0.6,0.1-0.8c0.1-0.7,0.5-1.3,1.1-1.8c0.6-0.5,1.3-0.7,2.4-0.7
		c0.6,0,1,0.1,1.3,0.3c0.3,0.2,0.6,0.5,0.7,0.9c0.2,0.4,0.2,0.8,0.2,1.3c0,0.5,0,1-0.1,1.5c-0.2,1.3-0.6,2.6-1.1,4.2
		c-0.5,1.5-1.1,3-1.9,4.6c-0.8,1.5-1.6,3-2.6,4.5c-1,1.4-2.1,2.7-3.3,3.8c-1.2,1.1-2.5,2-3.9,2.7c-1.4,0.7-2.9,1-4.5,1
		c-1.5,0-2.7-0.3-3.6-1c-0.8-0.7-1.3-1.6-1.3-3c-0.7,0.9-1.5,1.5-2.1,2.1c-0.7,0.5-1.4,0.9-2,1.2s-1.2,0.5-1.8,0.6
		c-0.6,0.1-1.1,0.1-1.5,0.1c-0.7,0-1.3-0.1-1.9-0.3c-0.6-0.2-1-0.6-1.4-1c-0.4-0.5-0.6-1-0.7-1.7c-0.1-0.7-0.1-1.6,0.1-2.6
		c0.1-0.4,0.2-0.9,0.4-1.4c0.2-0.5,0.4-1.1,0.6-1.7l6.1-15.1h6.8l-6.5,16c-0.2,0.4-0.3,0.8-0.4,1.2c-0.1,0.3-0.1,0.5-0.1,0.8
		c0,0.2,0,0.5,0.1,0.7c0.1,0.2,0.2,0.3,0.3,0.5c0.2,0.1,0.4,0.2,0.6,0.2c0.5,0,0.9-0.1,1.3-0.3c0.4-0.2,0.8-0.5,1.2-0.9
		c0.4-0.4,0.7-0.8,1.1-1.3c0.3-0.5,0.7-1.1,1-1.7L-80.5,271.6z"/>
	<path d="M-52.6,286.7c-0.7,1.3-1.4,2.4-2.1,3.3s-1.4,1.7-2.2,2.4c-0.7,0.6-1.4,1.2-2.1,1.6c-0.7,0.4-1.4,0.7-2,0.9
		s-1.2,0.4-1.8,0.4c-0.5,0.1-1,0.1-1.4,0.1c-0.7,0-1.3-0.1-1.9-0.3c-0.6-0.2-1-0.6-1.4-1c-0.4-0.5-0.6-1-0.7-1.7
		c-0.1-0.7-0.1-1.6,0.1-2.6c0.1-0.4,0.2-0.9,0.4-1.4c0.2-0.5,0.4-1.1,0.6-1.7l6.1-15.1h6.8l-6.5,16c-0.1,0.3-0.2,0.5-0.3,0.8
		c-0.1,0.3-0.1,0.5-0.2,0.7c-0.1,0.7-0.1,1.1,0.2,1.4c0.3,0.3,0.7,0.4,1.4,0.4c0.5,0,0.9-0.1,1.4-0.3c0.5-0.2,0.9-0.5,1.4-0.9
		c0.4-0.4,0.9-0.8,1.2-1.3c0.4-0.5,0.7-1.1,1-1.7H-52.6z M-51.4,265.4c-0.1,0.5-0.3,1-0.6,1.5s-0.6,0.8-1,1.2s-0.9,0.6-1.3,0.8
		c-0.5,0.2-1,0.3-1.5,0.3s-1-0.1-1.4-0.3s-0.8-0.5-1-0.8c-0.3-0.3-0.5-0.7-0.6-1.2c-0.1-0.5-0.1-0.9,0-1.5s0.3-1,0.6-1.5
		c0.3-0.5,0.6-0.9,1-1.2s0.9-0.6,1.3-0.8c0.5-0.2,1-0.3,1.5-0.3s1,0.1,1.4,0.3c0.4,0.2,0.8,0.5,1,0.8c0.3,0.3,0.5,0.7,0.6,1.2
		C-51.3,264.4-51.3,264.8-51.4,265.4z"/>
	<path d="M-28.8,286.7c-1,1.9-2,3.5-3,4.6c-1,1.2-1.9,2-2.8,2.6c-0.9,0.6-1.7,1-2.5,1.2c-0.8,0.2-1.5,0.3-2.1,0.3
		c-1,0-1.9-0.1-2.5-0.4c-0.6-0.3-1.1-0.7-1.5-1.2c-0.3-0.5-0.5-1.1-0.6-1.7c-0.1-0.6,0-1.3,0.1-2c0.2-0.8,0.4-1.7,0.9-2.8
		c0.4-1.1,0.9-2.2,1.4-3.3s0.9-2.2,1.4-3.2c0.4-1,0.7-1.9,0.9-2.7c0.3-1.6-0.1-2.4-1.2-2.4c-0.4,0-0.9,0.1-1.3,0.3
		c-0.4,0.2-0.8,0.5-1.2,0.9s-0.7,0.9-1.1,1.4c-0.3,0.5-0.7,1.1-1,1.7l-6.1,15.1H-58l9.6-23.6h6.8l-1,2.4c0.6-0.6,1.2-1,1.8-1.4
		s1.1-0.6,1.6-0.8c0.5-0.2,1-0.3,1.4-0.4c0.4-0.1,0.8-0.1,1.2-0.1c0.8,0,1.4,0.1,2,0.3c0.6,0.2,1.1,0.5,1.5,0.9
		c0.4,0.4,0.6,1,0.8,1.7c0.1,0.7,0.1,1.5-0.1,2.4c-0.1,0.6-0.3,1.3-0.6,2s-0.5,1.5-0.9,2.2c-0.3,0.8-0.6,1.5-1,2.3s-0.7,1.5-1,2.2
		c-0.3,0.7-0.6,1.3-0.8,1.9c-0.2,0.6-0.4,1.1-0.5,1.6c-0.1,0.6-0.1,1.1,0.1,1.4c0.2,0.4,0.7,0.6,1.4,0.6c0.5,0,1-0.1,1.4-0.3
		c0.4-0.2,0.8-0.5,1.2-0.9c0.4-0.4,0.7-0.8,1.1-1.3c0.4-0.5,0.7-1.1,1.1-1.7H-28.8z"/>
	<path d="M-4.1,286.7c-0.7,1.3-1.4,2.4-2.1,3.3c-0.7,0.9-1.4,1.7-2.1,2.3c-0.7,0.6-1.3,1.1-2,1.5c-0.7,0.4-1.3,0.7-1.9,0.9
		c-0.6,0.2-1.1,0.3-1.7,0.4c-0.5,0.1-1,0.1-1.4,0.1c-1.3,0-2.3-0.3-3-1c-0.7-0.7-1-1.7-0.9-3c-0.5,0.5-1,1.1-1.5,1.6
		c-0.6,0.5-1.2,1-1.8,1.4c-0.7,0.4-1.4,0.7-2.1,1c-0.8,0.3-1.5,0.4-2.4,0.4c-0.8,0-1.6-0.1-2.3-0.4s-1.3-0.7-1.8-1.3
		c-0.5-0.6-0.8-1.4-0.9-2.3c-0.2-1-0.1-2.1,0.2-3.5c0.2-1.1,0.5-2.2,1-3.5s1-2.5,1.7-3.7s1.5-2.4,2.4-3.5c0.9-1.1,1.9-2.1,2.9-3
		c1.1-0.9,2.2-1.6,3.5-2.1c1.2-0.5,2.5-0.8,3.9-0.8c1.3,0,2.3,0.2,2.8,0.7c0.5,0.5,0.7,1,0.6,1.7l0,0.2l4.4-10.8l7.2-0.9l-10.4,25.4
		c-0.1,0.3-0.2,0.5-0.3,0.8c-0.1,0.3-0.1,0.5-0.2,0.7c-0.1,0.7-0.1,1.1,0.2,1.4c0.3,0.3,0.7,0.4,1.4,0.4c0.5,0,0.9-0.1,1.3-0.3
		c0.4-0.2,0.8-0.5,1.2-0.9c0.4-0.4,0.8-0.8,1.1-1.3c0.3-0.5,0.7-1.1,1-1.7H-4.1z M-18.2,286.7l4.4-10.8c0-0.1,0-0.3-0.1-0.5
		c0-0.2-0.1-0.4-0.2-0.5s-0.3-0.3-0.5-0.4c-0.2-0.1-0.5-0.2-0.9-0.2c-0.7,0-1.3,0.2-2,0.6c-0.7,0.4-1.3,1-2,1.7
		c-0.6,0.7-1.2,1.5-1.8,2.4s-1.1,1.8-1.5,2.8c-0.5,1-0.8,1.9-1.2,2.8s-0.5,1.8-0.7,2.5c-0.2,0.9-0.2,1.6-0.2,2.1
		c0.1,0.5,0.2,0.9,0.4,1.1c0.2,0.2,0.4,0.4,0.7,0.4c0.3,0,0.5,0.1,0.7,0.1c0.3,0,0.7-0.1,1.1-0.2c0.4-0.2,0.8-0.4,1.3-0.7
		s0.8-0.7,1.2-1.2c0.4-0.5,0.7-1.1,1-1.7L-18.2,286.7z"/>
	<path d="M10.9,270.2c-0.3,2-0.6,3.8-0.8,5.3c-0.2,1.5-0.4,2.8-0.5,3.9c-0.1,1.1-0.2,2-0.3,2.8c-0.1,0.8-0.2,1.4-0.2,2
		c-0.1,0.6-0.1,1.1-0.2,1.6c-0.1,0.5-0.2,1-0.3,1.5c-0.2,1-0.5,1.9-1,2.7c-0.4,0.8-1,1.5-1.6,2.1c-0.6,0.6-1.3,1.1-2,1.5
		c-0.7,0.4-1.5,0.8-2.2,1c-0.7,0.3-1.5,0.4-2.2,0.6c-0.7,0.1-1.4,0.2-2.1,0.2c-1.2,0-2.2-0.2-3-0.5c-0.8-0.4-1.4-0.8-1.9-1.4
		s-0.7-1.2-0.9-1.9c-0.1-0.7-0.1-1.4,0-2.2c0.1-0.6,0.3-1.1,0.5-1.5c0.2-0.5,0.5-0.9,0.8-1.3c0.3-0.4,0.6-0.7,1-1
		c0.4-0.3,0.7-0.5,1.1-0.6c1.8-2.4,3.3-4.7,4.7-7c1.4-2.3,2.6-4.6,3.8-7L10.9,270.2z M-5.4,288.4c-0.2,1.1-0.2,1.9,0.2,2.5
		c0.3,0.5,1,0.8,2.1,0.8c0.5,0,1-0.1,1.6-0.2c0.5-0.1,1-0.4,1.5-0.7c0.5-0.3,0.8-0.8,1.2-1.3c0.3-0.6,0.6-1.2,0.7-2.1
		c0.1-0.4,0.1-0.8,0.2-1.2c0-0.4,0.1-0.8,0.2-1.2c0.1-0.4,0.1-0.9,0.1-1.4c0-0.5,0.1-1.1,0.2-1.8s0.1-1.5,0.2-2.4
		c0.1-0.9,0.2-2,0.4-3.2c-0.8,1.5-1.6,3-2.5,4.5c-0.9,1.4-1.9,2.9-3,4.4c0.3,0.2,0.5,0.4,0.6,0.6s0.2,0.6,0.1,1
		c-0.1,0.3-0.2,0.6-0.3,0.9c-0.1,0.3-0.3,0.5-0.6,0.7c-0.2,0.2-0.5,0.4-0.8,0.5c-0.3,0.1-0.6,0.2-0.9,0.2c-0.3,0-0.5,0-0.7-0.1
		C-5.2,288.9-5.3,288.7-5.4,288.4z"/>
</g>
<g id="XMLID_38_">
	<g id="XMLID_43_">
		<path d="M-217.5,293h-37c-0.8,0-1.5-0.7-1.5-1.5s0.7-1.5,1.5-1.5h37c0.8,0,1.5,0.7,1.5,1.5S-216.7,293-217.5,293z"/>
	</g>
	<g id="XMLID_42_">
		<path d="M-261.5,293h-4c-0.8,0-1.5-0.7-1.5-1.5s0.7-1.5,1.5-1.5h4c0.8,0,1.5,0.7,1.5,1.5S-260.7,293-261.5,293z"/>
	</g>
	<g id="XMLID_41_">
		<path d="M-236.5,282h-44c-0.8,0-1.5-0.7-1.5-1.5c0-0.8,0.7-1.5,1.5-1.5h44c0.8,0,1.5,0.7,1.5,1.5C-235,281.3-235.7,282-236.5,282z
			"/>
	</g>
	<g id="XMLID_40_">
		<path d="M-222.5,282h-6c-0.8,0-1.5-0.7-1.5-1.5c0-0.8,0.7-1.5,1.5-1.5h6c0.8,0,1.5,0.7,1.5,1.5C-221,281.3-221.7,282-222.5,282z"
			/>
	</g>
	<g id="XMLID_39_">
		<path d="M-225.5,268h-47c-0.8,0-1.5-0.7-1.5-1.5s0.7-1.5,1.5-1.5h47c0.8,0,1.5,0.7,1.5,1.5S-224.7,268-225.5,268z"/>
	</g>
</g>
<g id="XMLID_31_">
	<g id="XMLID_37_">
		<path d="M85.5,295h-55c-0.8,0-1.5-0.7-1.5-1.5s0.7-1.5,1.5-1.5h55c0.8,0,1.5,0.7,1.5,1.5S86.3,295,85.5,295z"/>
	</g>
	<g id="XMLID_36_">
		<path d="M111.5,295h-12c-0.8,0-1.5-0.7-1.5-1.5s0.7-1.5,1.5-1.5h12c0.8,0,1.5,0.7,1.5,1.5S112.3,295,111.5,295z"/>
	</g>
	<g id="XMLID_35_">
		<path d="M35.5,284h-11c-0.8,0-1.5-0.7-1.5-1.5s0.7-1.5,1.5-1.5h11c0.8,0,1.5,0.7,1.5,1.5S36.3,284,35.5,284z"/>
	</g>
	<g id="XMLID_34_">
		<path d="M97.5,284h-49c-0.8,0-1.5-0.7-1.5-1.5s0.7-1.5,1.5-1.5h49c0.8,0,1.5,0.7,1.5,1.5S98.3,284,97.5,284z"/>
	</g>
	<g id="XMLID_33_">
		<path d="M69.5,270h-40c-0.8,0-1.5-0.7-1.5-1.5s0.7-1.5,1.5-1.5h40c0.8,0,1.5,0.7,1.5,1.5S70.3,270,69.5,270z"/>
	</g>
	<g id="XMLID_32_">
		<path d="M108.5,270h-15c-0.8,0-1.5-0.7-1.5-1.5s0.7-1.5,1.5-1.5h15c0.8,0,1.5,0.7,1.5,1.5S109.3,270,108.5,270z"/>
	</g>
</g>
</svg>
