<?xml version="1.0" encoding="utf-8"?>
<!-- Generator: Adobe Illustrator 19.0.0, SVG Export Plug-In . SVG Version: 6.00 Build 0)  -->
<svg version="1.1" id="Layer_1" xmlns="http://www.w3.org/2000/svg" xmlns:xlink="http://www.w3.org/1999/xlink" x="0px" y="0px"
	 viewBox="-215 247.6 529 67.4" style="enable-background:new -215 247.6 529 67.4;" xml:space="preserve">
<style type="text/css">
	.st0{enable-background:new    ;}
</style>
<g id="XMLID_1_" class="st0">
	<path d="M-90.6,300l16.2-39.7H-75c-1.6,0-3.1,0.2-4.5,0.5c-1.4,0.4-2.8,1-4,1.9c-1.2,0.9-2.2,2.1-3.1,3.7c-0.9,1.6-1.6,3.6-2,6
		c-0.1,0.8-0.2,1.4-0.2,1.9c0,0.5,0,0.9,0.1,1.1c0,0.3,0.1,0.5,0.2,0.7s0.1,0.3,0.1,0.4c-1,0-1.9-0.1-2.7-0.3
		c-0.8-0.2-1.4-0.5-1.8-1c-0.4-0.4-0.7-1-0.9-1.8c-0.1-0.7-0.1-1.7,0.1-2.7c0.4-2,1.1-3.9,2.2-5.8c1.1-1.9,2.6-3.5,4.5-5
		c1.9-1.4,4.3-2.6,7-3.5c2.8-0.9,6-1.3,9.7-1.3c1.2,0,2.3,0,3.2,0.1c0.9,0.1,1.8,0.2,2.6,0.2c0.8,0.1,1.5,0.2,2.2,0.3
		c0.7,0.1,1.4,0.2,2.1,0.3c0.7,0.1,1.5,0.2,2.3,0.2c0.8,0.1,1.7,0.1,2.7,0.1c1.4,0,2.7-0.1,4-0.4c1.3-0.3,2.3-0.5,3.2-0.9
		c-0.6,2.6-1.7,4.6-3.2,5.8c-1.5,1.2-3.4,1.8-5.8,1.8c-1.5,0-3-0.1-4.4-0.4c-1.5-0.3-3-0.6-4.6-0.9L-82,300H-90.6z"/>
	<path d="M-73.4,300l12.2-30h8.6l-1.5,3.7c0.6-0.5,1.2-0.9,1.9-1.4c0.6-0.4,1.3-0.8,1.9-1.2c0.7-0.3,1.3-0.6,2-0.8
		c0.7-0.2,1.4-0.3,2.1-0.3c0.7,0,1.3,0.1,1.7,0.4c0.5,0.3,0.8,0.6,1.1,1c0.3,0.4,0.4,0.9,0.5,1.4c0.1,0.5,0,1.1-0.1,1.7
		c-0.1,0.5-0.3,1-0.6,1.6c-0.3,0.5-0.6,1-1.1,1.4c-0.4,0.4-1,0.7-1.6,1c-0.6,0.3-1.3,0.4-2,0.4c-0.6,0-1-0.1-1.2-0.3
		c-0.3-0.2-0.4-0.4-0.5-0.7c-0.1-0.3-0.1-0.6-0.2-1c0-0.3,0-0.7,0-1c0-0.3-0.1-0.5-0.2-0.7c-0.1-0.2-0.3-0.3-0.6-0.3
		c-0.9,0-1.7,0.2-2.4,0.6c-0.7,0.4-1.5,1-2.4,1.7l-9.2,22.8H-73.4z"/>
	<path d="M-12.4,289.3c-0.9,1.6-1.8,3-2.7,4.2c-0.9,1.2-1.8,2.2-2.7,3c-0.9,0.8-1.7,1.5-2.6,2c-0.8,0.5-1.6,0.9-2.4,1.2
		c-0.8,0.3-1.5,0.5-2.1,0.6s-1.3,0.1-1.8,0.1c-1.7,0-3-0.5-3.8-1.4c-0.8-0.9-1.2-2.3-1-4.1c-0.6,0.7-1.3,1.4-2,2
		c-0.7,0.7-1.5,1.2-2.3,1.8c-0.8,0.5-1.7,0.9-2.7,1.3c-1,0.3-2,0.5-3,0.5c-1,0-2-0.2-2.9-0.5c-0.9-0.3-1.6-0.9-2.2-1.6
		c-0.6-0.8-1-1.8-1.2-3c-0.2-1.2-0.1-2.7,0.2-4.5c0.3-1.4,0.7-2.8,1.3-4.4c0.6-1.6,1.3-3.1,2.2-4.7c0.9-1.6,1.9-3.1,3-4.5
		s2.4-2.7,3.7-3.8c1.4-1.1,2.8-2,4.4-2.6c1.6-0.7,3.2-1,5-1c1.7,0,2.9,0.3,3.5,0.9c0.7,0.6,0.9,1.3,0.7,2.2l-0.1,0.4l1.3-3.2h8.6
		l-8.3,20.4c-0.2,0.3-0.3,0.7-0.4,1c-0.1,0.3-0.2,0.6-0.2,1c-0.3,1.7,0.3,2.6,2,2.6c0.6,0,1.2-0.2,1.7-0.5c0.6-0.3,1.1-0.7,1.6-1.2
		c0.5-0.5,1-1.1,1.4-1.8c0.4-0.7,0.9-1.4,1.2-2.2H-12.4z M-24.9,275.8c0-0.2,0-0.4,0-0.7c0-0.3-0.1-0.5-0.2-0.8
		c-0.1-0.2-0.3-0.4-0.6-0.6c-0.3-0.2-0.7-0.2-1.2-0.2c-0.8,0-1.7,0.3-2.5,0.8c-0.9,0.5-1.7,1.3-2.5,2.2s-1.6,1.9-2.3,3.1
		c-0.7,1.2-1.4,2.3-1.9,3.6s-1.1,2.4-1.5,3.6c-0.4,1.2-0.7,2.2-0.9,3.2c-0.2,1.2-0.3,2-0.2,2.7c0.1,0.6,0.3,1.1,0.5,1.4
		c0.2,0.3,0.5,0.5,0.9,0.5c0.3,0.1,0.6,0.1,0.9,0.1c0.4,0,0.9-0.1,1.5-0.3c0.5-0.2,1.1-0.6,1.6-1c0.5-0.4,1.1-1,1.6-1.7
		c0.5-0.7,0.9-1.4,1.3-2.3L-24.9,275.8z"/>
	<path d="M19.1,289.3c-0.9,1.6-1.8,3-2.7,4.2c-0.9,1.2-1.8,2.2-2.6,2.9c-0.9,0.8-1.7,1.4-2.6,1.9c-0.8,0.5-1.6,0.8-2.4,1.1
		c-0.8,0.3-1.5,0.4-2.1,0.5S5.5,300,4.9,300c-1.7,0-2.9-0.4-3.8-1.3c-0.8-0.9-1.2-2.2-1.1-3.9c-0.6,0.7-1.2,1.4-1.9,2
		c-0.7,0.7-1.5,1.2-2.3,1.8c-0.8,0.5-1.7,0.9-2.7,1.3c-1,0.3-2,0.5-3,0.5c-1,0-2-0.2-2.9-0.5c-0.9-0.3-1.6-0.9-2.2-1.6
		c-0.6-0.8-1-1.8-1.2-3c-0.2-1.2-0.1-2.7,0.2-4.5c0.3-1.4,0.7-2.8,1.3-4.4c0.6-1.6,1.3-3.1,2.2-4.7c0.9-1.6,1.9-3.1,3-4.5
		s2.4-2.7,3.7-3.8c1.4-1.1,2.8-2,4.4-2.6c1.6-0.7,3.2-1,5-1c1.7,0,2.9,0.3,3.5,0.9c0.7,0.6,0.9,1.3,0.7,2.2l0,0.2l5.6-13.8l9.1-1.2
		L9.3,290.4c-0.2,0.3-0.3,0.7-0.4,1c-0.1,0.3-0.2,0.6-0.2,1c-0.2,0.8-0.1,1.4,0.3,1.7c0.3,0.3,0.9,0.5,1.8,0.5
		c0.6,0,1.2-0.1,1.7-0.4s1.1-0.6,1.6-1.1c0.5-0.5,1-1,1.4-1.7c0.4-0.7,0.9-1.4,1.2-2.1H19.1z M1.1,289.3l5.6-13.7
		c0-0.2,0-0.4-0.1-0.6c0-0.2-0.1-0.5-0.3-0.7c-0.1-0.2-0.3-0.4-0.6-0.6c-0.3-0.1-0.6-0.2-1.1-0.2c-0.8,0-1.7,0.3-2.5,0.8
		c-0.9,0.5-1.7,1.3-2.5,2.2s-1.6,1.9-2.3,3.1c-0.7,1.2-1.4,2.3-1.9,3.6s-1.1,2.4-1.5,3.6c-0.4,1.2-0.7,2.2-0.9,3.2
		c-0.2,1.2-0.3,2-0.2,2.7c0.1,0.6,0.3,1.1,0.5,1.4c0.2,0.3,0.5,0.5,0.9,0.5c0.3,0.1,0.6,0.1,0.9,0.1c0.4,0,0.9-0.1,1.4-0.3
		c0.5-0.2,1.1-0.5,1.6-0.9c0.5-0.4,1.1-0.9,1.6-1.6c0.5-0.6,0.9-1.4,1.3-2.2L1.1,289.3z"/>
	<path d="M41.6,289.3c-1.1,1.4-2.3,2.8-3.7,4.1s-2.8,2.5-4.4,3.5c-1.6,1-3.2,1.9-5,2.5c-1.8,0.6-3.6,1-5.6,1c-1.4,0-2.7-0.2-3.8-0.5
		c-1.1-0.4-2-0.9-2.6-1.7c-0.7-0.8-1.1-1.7-1.3-2.9s-0.1-2.7,0.2-4.4c0.2-1.2,0.6-2.5,1.1-4c0.5-1.5,1.2-3,2-4.6
		c0.8-1.6,1.8-3.1,2.9-4.7c1.1-1.5,2.4-2.9,3.8-4.1c1.4-1.2,3-2.2,4.8-2.9c1.7-0.7,3.6-1.1,5.7-1.1c1.3,0,2.4,0.2,3.2,0.5
		c0.8,0.3,1.4,0.7,1.8,1.3s0.6,1.1,0.7,1.8c0.1,0.7,0,1.4-0.1,2.2c-0.3,1.7-1,3.4-2.1,4.8s-2.3,2.8-3.8,3.9c-1.5,1.1-3.1,2-4.9,2.7
		c-1.8,0.7-3.6,1.1-5.4,1.2c-0.1,0.4-0.2,0.9-0.4,1.3c-0.1,0.4-0.2,0.8-0.3,1.1c-0.2,1-0.3,1.9-0.2,2.5c0.1,0.7,0.2,1.2,0.5,1.5
		c0.3,0.4,0.7,0.6,1.2,0.8c0.5,0.1,1.1,0.2,1.8,0.2c1.2,0,2.3-0.2,3.3-0.5c1-0.3,2-0.7,3-1.3c0.9-0.5,1.9-1.2,2.8-1.9
		c0.9-0.7,1.8-1.5,2.7-2.4H41.6z M26.1,285c1.1-0.1,2.3-0.4,3.5-1s2.2-1.3,3.2-2.2c1-0.9,1.8-1.9,2.5-3.1c0.7-1.2,1.2-2.4,1.4-3.6
		c0.1-0.7,0.2-1.3,0-1.8c-0.1-0.4-0.5-0.7-1-0.7c-0.8,0-1.6,0.4-2.5,1.1c-0.9,0.7-1.7,1.7-2.6,2.9c-0.9,1.2-1.7,2.5-2.5,4
		C27.3,282.1,26.7,283.6,26.1,285z"/>
	<path d="M62.2,270h8.6l-8.3,20.4c-0.4,1-0.6,1.7-0.7,2.2c-0.1,0.6-0.1,1.1,0.2,1.4c0.3,0.4,0.7,0.5,1.5,0.5c1,0,2-0.3,3-1
		c1-0.7,2-1.6,3-2.7c1-1.1,1.9-2.4,2.8-3.8s1.7-2.9,2.4-4.4c0.7-1.5,1.4-2.9,1.9-4.4c0.5-1.4,0.9-2.7,1.1-3.8
		c-0.1,0.1-0.2,0.2-0.4,0.3c-0.2,0.1-0.4,0.1-0.6,0.2c-0.2,0-0.4,0.1-0.6,0.1c-0.2,0-0.4,0-0.5,0c-0.3,0-0.6-0.1-0.9-0.3
		c-0.2-0.2-0.4-0.4-0.5-0.7c-0.1-0.3-0.2-0.6-0.2-1s0-0.7,0.1-1.1c0.2-0.9,0.6-1.7,1.3-2.3c0.7-0.6,1.7-0.9,3-0.9
		c0.7,0,1.3,0.1,1.7,0.4s0.7,0.7,0.9,1.2c0.2,0.5,0.3,1,0.3,1.7c0,0.6-0.1,1.3-0.2,1.9c-0.3,1.6-0.8,3.4-1.4,5.3
		c-0.6,1.9-1.5,3.9-2.4,5.8s-2.1,3.8-3.4,5.7c-1.3,1.8-2.7,3.4-4.2,4.9c-1.5,1.4-3.2,2.6-5,3.4c-1.8,0.9-3.7,1.3-5.8,1.3
		c-2,0-3.5-0.4-4.5-1.2c-1.1-0.8-1.6-2.1-1.6-3.8c-0.9,1.1-1.8,2-2.7,2.6c-0.9,0.7-1.7,1.2-2.5,1.5c-0.8,0.4-1.6,0.6-2.3,0.7
		c-0.7,0.1-1.4,0.2-2,0.2c-0.9,0-1.7-0.1-2.4-0.4c-0.7-0.3-1.3-0.7-1.8-1.3c-0.5-0.6-0.8-1.3-0.9-2.2s-0.1-2,0.1-3.3
		c0.1-0.5,0.3-1.1,0.5-1.8s0.5-1.4,0.8-2.1l7.8-19.2H56l-8.3,20.4c-0.2,0.5-0.4,1-0.5,1.5c-0.1,0.4-0.1,0.7-0.1,1
		c0,0.3,0,0.6,0.1,0.8c0.1,0.2,0.2,0.4,0.4,0.6c0.2,0.1,0.5,0.2,0.8,0.2c0.6,0,1.1-0.1,1.7-0.4c0.5-0.3,1.1-0.6,1.5-1.1
		c0.5-0.5,1-1,1.4-1.7c0.4-0.7,0.8-1.4,1.2-2.1L62.2,270z"/>
	<path d="M97.8,289.3c-0.9,1.6-1.8,3-2.7,4.2c-0.9,1.2-1.8,2.2-2.8,3c-0.9,0.8-1.8,1.5-2.7,2c-0.9,0.5-1.7,0.9-2.5,1.2
		c-0.8,0.3-1.5,0.5-2.2,0.6c-0.7,0.1-1.3,0.1-1.8,0.1c-0.9,0-1.7-0.1-2.4-0.4c-0.7-0.3-1.3-0.7-1.8-1.3c-0.5-0.6-0.8-1.3-0.9-2.2
		s-0.1-2,0.1-3.3c0.1-0.5,0.3-1.1,0.5-1.8c0.2-0.7,0.5-1.4,0.8-2.1l7.8-19.2h8.6l-8.3,20.4c-0.2,0.3-0.3,0.7-0.4,1
		c-0.1,0.3-0.2,0.6-0.2,1c-0.2,0.8-0.1,1.4,0.2,1.7c0.3,0.3,0.9,0.5,1.8,0.5c0.6,0,1.2-0.1,1.8-0.4s1.2-0.6,1.8-1.1
		c0.6-0.5,1.1-1,1.6-1.7c0.5-0.7,0.9-1.4,1.3-2.1H97.8z M99.4,262.1c-0.1,0.7-0.4,1.3-0.7,1.9c-0.4,0.6-0.8,1.1-1.3,1.5
		c-0.5,0.4-1.1,0.8-1.7,1c-0.6,0.2-1.3,0.4-1.9,0.4s-1.3-0.1-1.8-0.4s-1-0.6-1.3-1c-0.3-0.4-0.6-0.9-0.7-1.5c-0.1-0.6-0.1-1.2,0-1.9
		c0.1-0.7,0.4-1.3,0.7-1.9c0.4-0.6,0.8-1.1,1.3-1.5c0.5-0.4,1.1-0.8,1.7-1c0.6-0.3,1.3-0.4,1.9-0.4s1.3,0.1,1.8,0.4s1,0.6,1.3,1
		c0.4,0.4,0.6,0.9,0.7,1.5C99.5,260.8,99.5,261.4,99.4,262.1z"/>
	<path d="M128.1,289.3c-1.3,2.5-2.6,4.4-3.9,5.9c-1.3,1.5-2.4,2.6-3.6,3.4c-1.1,0.8-2.2,1.3-3.2,1.5c-1,0.2-1.9,0.4-2.7,0.4
		c-1.3,0-2.4-0.2-3.2-0.6c-0.8-0.4-1.4-0.9-1.9-1.5c-0.4-0.6-0.7-1.4-0.8-2.2c-0.1-0.8,0-1.6,0.1-2.5c0.2-1,0.6-2.2,1.1-3.6
		c0.5-1.4,1.1-2.7,1.7-4.2c0.6-1.4,1.2-2.8,1.7-4.1c0.5-1.3,0.9-2.5,1.1-3.4c0.4-2.1-0.1-3.1-1.6-3.1c-0.5,0-1.1,0.1-1.6,0.4
		c-0.5,0.3-1,0.7-1.5,1.2s-1,1.1-1.4,1.8c-0.4,0.7-0.9,1.4-1.2,2.2L99.5,300h-8.6l12.2-30h8.6l-1.2,3.1c0.8-0.7,1.5-1.3,2.3-1.7
		c0.7-0.4,1.4-0.8,2.1-1c0.6-0.2,1.3-0.4,1.8-0.5c0.6-0.1,1.1-0.1,1.5-0.1c1,0,1.8,0.1,2.6,0.4c0.8,0.3,1.4,0.7,1.9,1.2
		c0.5,0.5,0.8,1.3,1,2.1c0.2,0.9,0.1,1.9-0.1,3.1c-0.2,0.8-0.4,1.7-0.7,2.6s-0.7,1.9-1.1,2.8c-0.4,1-0.8,1.9-1.3,2.9
		c-0.4,1-0.8,1.9-1.2,2.8c-0.4,0.9-0.7,1.7-1,2.4c-0.3,0.8-0.5,1.4-0.6,2c-0.1,0.7-0.1,1.3,0.2,1.8c0.2,0.5,0.8,0.7,1.8,0.7
		c0.6,0,1.2-0.1,1.8-0.4c0.5-0.3,1-0.6,1.5-1.1c0.5-0.5,0.9-1,1.4-1.7c0.5-0.7,0.9-1.4,1.4-2.2H128.1z"/>
	<path d="M159.6,289.3c-0.9,1.6-1.8,3-2.7,4.2c-0.9,1.2-1.8,2.2-2.6,2.9c-0.9,0.8-1.7,1.4-2.6,1.9c-0.8,0.5-1.6,0.8-2.4,1.1
		c-0.8,0.3-1.5,0.4-2.1,0.5c-0.7,0.1-1.3,0.1-1.8,0.1c-1.7,0-2.9-0.4-3.8-1.3c-0.8-0.9-1.2-2.2-1.1-3.9c-0.6,0.7-1.2,1.4-1.9,2
		c-0.7,0.7-1.5,1.2-2.3,1.8c-0.8,0.5-1.7,0.9-2.7,1.3c-1,0.3-2,0.5-3,0.5c-1,0-2-0.2-2.9-0.5c-0.9-0.3-1.6-0.9-2.2-1.6
		c-0.6-0.8-1-1.8-1.2-3c-0.2-1.2-0.1-2.7,0.2-4.5c0.3-1.4,0.7-2.8,1.3-4.4c0.6-1.6,1.3-3.1,2.2-4.7c0.9-1.6,1.9-3.1,3-4.5
		s2.4-2.7,3.7-3.8c1.4-1.1,2.8-2,4.4-2.6c1.6-0.7,3.2-1,5-1c1.7,0,2.9,0.3,3.5,0.9c0.7,0.6,0.9,1.3,0.7,2.2l0,0.2l5.6-13.8l9.1-1.2
		l-13.2,32.4c-0.2,0.3-0.3,0.7-0.4,1c-0.1,0.3-0.2,0.6-0.2,1c-0.2,0.8-0.1,1.4,0.3,1.7c0.3,0.3,0.9,0.5,1.8,0.5
		c0.6,0,1.2-0.1,1.7-0.4s1.1-0.6,1.6-1.1c0.5-0.5,1-1,1.4-1.7c0.4-0.7,0.9-1.4,1.2-2.1H159.6z M141.6,289.3l5.6-13.7
		c0-0.2,0-0.4-0.1-0.6c0-0.2-0.1-0.5-0.3-0.7c-0.1-0.2-0.3-0.4-0.6-0.6c-0.3-0.1-0.6-0.2-1.1-0.2c-0.8,0-1.7,0.3-2.5,0.8
		c-0.9,0.5-1.7,1.3-2.5,2.2s-1.6,1.9-2.3,3.1c-0.7,1.2-1.4,2.3-1.9,3.6c-0.6,1.2-1.1,2.4-1.5,3.6c-0.4,1.2-0.7,2.2-0.9,3.2
		c-0.2,1.2-0.3,2-0.2,2.7c0.1,0.6,0.3,1.1,0.5,1.4c0.2,0.3,0.5,0.5,0.9,0.5c0.3,0.1,0.6,0.1,0.9,0.1c0.4,0,0.9-0.1,1.4-0.3
		s1.1-0.5,1.6-0.9c0.5-0.4,1.1-0.9,1.6-1.6c0.5-0.6,0.9-1.4,1.3-2.2L141.6,289.3z"/>
	<path d="M178.7,268.2c-0.4,2.6-0.7,4.8-1,6.8s-0.5,3.6-0.7,5c-0.2,1.4-0.3,2.6-0.4,3.6c-0.1,1-0.2,1.8-0.3,2.6
		c-0.1,0.8-0.2,1.4-0.3,2.1c-0.1,0.6-0.2,1.3-0.3,1.9c-0.3,1.3-0.7,2.5-1.2,3.5c-0.6,1-1.2,1.9-2,2.7c-0.8,0.8-1.6,1.4-2.5,1.9
		c-0.9,0.5-1.8,1-2.8,1.3s-1.9,0.6-2.8,0.7c-0.9,0.1-1.8,0.2-2.7,0.2c-1.5,0-2.8-0.2-3.8-0.7c-1-0.5-1.8-1.1-2.4-1.8
		c-0.6-0.7-1-1.6-1.1-2.5c-0.2-0.9-0.2-1.8,0-2.7c0.1-0.7,0.4-1.4,0.7-1.9c0.3-0.6,0.6-1.1,1-1.6s0.8-0.9,1.2-1.2
		c0.4-0.3,0.9-0.6,1.3-0.8c2.3-3,4.3-6,6-8.9c1.7-2.9,3.3-5.9,4.9-8.9L178.7,268.2z M157.9,291.5c-0.3,1.4-0.2,2.5,0.2,3.1
		c0.4,0.7,1.3,1,2.6,1c0.7,0,1.3-0.1,2-0.3s1.3-0.5,1.9-0.9c0.6-0.4,1.1-1,1.5-1.7s0.7-1.6,1-2.6c0.1-0.5,0.2-1,0.2-1.5
		c0.1-0.5,0.1-1,0.2-1.5s0.1-1.1,0.2-1.8s0.1-1.4,0.2-2.3c0.1-0.9,0.2-1.9,0.3-3c0.1-1.2,0.3-2.5,0.5-4c-1,2-2.1,3.8-3.2,5.7
		c-1.2,1.8-2.5,3.7-3.8,5.7c0.3,0.2,0.6,0.5,0.8,0.8c0.2,0.3,0.2,0.8,0.2,1.3c-0.1,0.4-0.2,0.7-0.4,1.1c-0.2,0.4-0.4,0.7-0.7,1
		s-0.6,0.5-1,0.7s-0.7,0.2-1.1,0.2c-0.3,0-0.6,0-0.9-0.1C158.2,292,158,291.8,157.9,291.5z"/>
</g>
<g id="XMLID_2_">
	<path d="M-108,297.6h-37c-1.1,0-2-0.9-2-2s0.9-2,2-2h37c1.1,0,2,0.9,2,2S-106.9,297.6-108,297.6z"/>
</g>
<g id="XMLID_3_">
	<path d="M-152,297.6h-4c-1.1,0-2-0.9-2-2s0.9-2,2-2h4c1.1,0,2,0.9,2,2S-150.9,297.6-152,297.6z"/>
</g>
<g id="XMLID_4_">
	<path d="M-127,286.6h-44c-1.1,0-2-0.9-2-2s0.9-2,2-2h44c1.1,0,2,0.9,2,2S-125.9,286.6-127,286.6z"/>
</g>
<g id="XMLID_5_">
	<path d="M-113,286.6h-6c-1.1,0-2-0.9-2-2s0.9-2,2-2h6c1.1,0,2,0.9,2,2S-111.9,286.6-113,286.6z"/>
</g>
<g id="XMLID_6_">
	<path d="M-116,272.6h-47c-1.1,0-2-0.9-2-2s0.9-2,2-2h47c1.1,0,2,0.9,2,2S-114.9,272.6-116,272.6z"/>
</g>
<g id="XMLID_7_">
	<path d="M-171,272.6h-7c-1.1,0-2-0.9-2-2s0.9-2,2-2h7c1.1,0,2,0.9,2,2S-169.9,272.6-171,272.6z"/>
</g>
<g id="XMLID_8_">
	<path d="M-188,272.6h-25c-1.1,0-2-0.9-2-2s0.9-2,2-2h25c1.1,0,2,0.9,2,2S-186.9,272.6-188,272.6z"/>
</g>
<g id="XMLID_9_">
	<path d="M-183,286.6h-16c-1.1,0-2-0.9-2-2s0.9-2,2-2h16c1.1,0,2,0.9,2,2S-181.9,286.6-183,286.6z"/>
</g>
<g id="XMLID_10_">
	<path d="M-164,297.6h-43c-1.1,0-2-0.9-2-2s0.9-2,2-2h43c1.1,0,2,0.9,2,2S-162.9,297.6-164,297.6z"/>
</g>
<g id="XMLID_11_">
	<path d="M259,297.6h-64c-1.1,0-2-0.9-2-2s0.9-2,2-2h64c1.1,0,2,0.9,2,2S260.1,297.6,259,297.6z"/>
</g>
<g id="XMLID_12_">
	<path d="M287,297.6h-12c-1.1,0-2-0.9-2-2s0.9-2,2-2h12c1.1,0,2,0.9,2,2S288.1,297.6,287,297.6z"/>
</g>
<g id="XMLID_13_">
	<path d="M227,286.6h-32c-1.1,0-2-0.9-2-2s0.9-2,2-2h32c1.1,0,2,0.9,2,2S228.1,286.6,227,286.6z"/>
</g>
<g id="XMLID_14_">
	<path d="M245,286.6h-11c-1.1,0-2-0.9-2-2s0.9-2,2-2h11c1.1,0,2,0.9,2,2S246.1,286.6,245,286.6z"/>
</g>
<g id="XMLID_15_">
	<path d="M312,286.6h-49c-1.1,0-2-0.9-2-2s0.9-2,2-2h49c1.1,0,2,0.9,2,2S313.1,286.6,312,286.6z"/>
</g>
<g id="XMLID_16_">
	<path d="M239,272.6h-40c-1.1,0-2-0.9-2-2s0.9-2,2-2h40c1.1,0,2,0.9,2,2S240.1,272.6,239,272.6z"/>
</g>
<g id="XMLID_17_">
	<path d="M278,272.6h-15c-1.1,0-2-0.9-2-2s0.9-2,2-2h15c1.1,0,2,0.9,2,2S279.1,272.6,278,272.6z"/>
</g>
</svg>
